<svg xmlns="http://www.w3.org/2000/svg" xmlns:xlink="http://www.w3.org/1999/xlink" width="2000" zoomAndPan="magnify" viewBox="0 0 1500 749.999995" height="1000" preserveAspectRatio="xMidYMid meet" version="1.0"><defs><g/><clipPath id="b3f4dc1336"><path d="M 552 176 L 649.699219 176 L 649.699219 269 L 552 269 Z M 552 176 " clip-rule="nonzero"/></clipPath><clipPath id="483658c9d9"><path d="M 103.519531 200 L 404 200 L 404 683.53125 L 103.519531 683.53125 Z M 103.519531 200 " clip-rule="nonzero"/></clipPath><clipPath id="205281e78c"><path d="M 7.699219 69 L 422 69 L 422 369 L 7.699219 369 Z M 7.699219 69 " clip-rule="nonzero"/></clipPath><clipPath id="581488b83d"><rect x="0" width="1228" y="0" height="242"/></clipPath><clipPath id="cb0e0e3801"><rect x="0" width="1019" y="0" height="49"/></clipPath></defs><g clip-path="url(#b3f4dc1336)"><path fill="#44a6d9" d="M 601.300781 176.429688 L 616.234375 211.574219 L 649.699219 211.574219 L 625.480469 235.195312 L 631.207031 268.507812 L 601.300781 252.75 L 571.355469 268.507812 L 577.085938 235.195312 L 552.902344 211.574219 L 586.328125 211.574219 L 601.300781 176.429688 " fill-opacity="1" fill-rule="nonzero"/></g><path fill="#264790" d="M 493.203125 81.207031 L 503.273438 104.898438 L 525.84375 104.898438 L 509.523438 120.808594 L 513.378906 143.226562 L 493.203125 132.636719 L 473.066406 143.226562 L 476.882812 120.808594 L 460.601562 104.898438 L 483.132812 104.898438 L 493.203125 81.207031 " fill-opacity="1" fill-rule="nonzero"/><path fill="#44a6d9" d="M 425.042969 259.074219 L 431.667969 274.644531 L 446.453125 274.644531 L 435.75 285.050781 L 438.292969 299.796875 L 425.042969 292.835938 L 411.832031 299.796875 L 414.375 285.050781 L 403.671875 274.644531 L 418.457031 274.644531 L 425.042969 259.074219 " fill-opacity="1" fill-rule="nonzero"/><g clip-path="url(#483658c9d9)"><path fill="#44a6d9" d="M 142.597656 408.269531 C 121.1875 533.886719 200.914062 653.4375 322.671875 683.53125 C 316.757812 682.96875 310.769531 682.183594 304.78125 681.136719 C 173.175781 658.753906 84.617188 533.8125 107.039062 402.207031 C 129.457031 270.601562 254.363281 182.007812 385.964844 204.425781 C 391.953125 205.476562 397.867188 206.710938 403.671875 208.132812 C 278.804688 196.230469 164.007812 282.617188 142.597656 408.269531 " fill-opacity="1" fill-rule="evenodd"/></g><path fill="#264790" d="M 508.0625 594.671875 C 309.046875 708.011719 112.613281 430.914062 285.429688 280.632812 C 279.890625 283.816406 274.425781 287.257812 269.109375 291.039062 C 181.972656 352.835938 161.386719 473.585938 223.144531 560.722656 C 284.941406 647.859375 405.691406 668.410156 492.828125 606.648438 C 498.144531 602.871094 503.234375 598.863281 508.0625 594.671875 " fill-opacity="1" fill-rule="evenodd"/><g clip-path="url(#205281e78c)"><path fill="#264790" d="M 361.488281 138.511719 L 373.503906 167.519531 C 364.03125 166.511719 354.5625 166.023438 345.128906 166.023438 C 280.5625 166.023438 217.605469 188.96875 167.824219 230.589844 C 151.28125 244.402344 136.570312 260.011719 123.804688 277.039062 L 111.230469 246.609375 L 109.65625 242.828125 L 97.457031 241.96875 L 57.703125 239.125 L 29.371094 237.101562 L 28.246094 237.027344 L 28.246094 321.320312 C 31.167969 323.042969 33.152344 326.1875 33.152344 329.78125 C 33.152344 332.847656 31.726562 335.617188 29.484375 337.378906 C 29.109375 337.714844 28.695312 338.015625 28.246094 338.238281 L 28.246094 347.484375 L 38.539062 368.070312 L 7.699219 368.070312 L 17.804688 347.859375 L 17.804688 338.800781 C 14.886719 337.117188 12.902344 333.972656 12.902344 330.339844 C 12.902344 326.933594 14.621094 323.941406 17.28125 322.179688 C 17.46875 322.03125 17.617188 321.882812 17.804688 321.769531 C 18.027344 321.621094 18.214844 321.46875 18.476562 321.320312 L 18.476562 236.355469 L 187.773438 75.292969 L 378.292969 70.539062 L 421.375 69.453125 L 361.488281 138.511719 " fill-opacity="1" fill-rule="evenodd"/></g><g transform="matrix(1, 0, 0, 1, 264, 304)"><g clip-path="url(#581488b83d)"><g fill="#264790" fill-opacity="1"><g transform="translate(1.171174, 174.32916)"><g><path d="M 155.3125 -89.015625 L 155.3125 -54.53125 C 151.195312 -35.644531 142.203125 -21.351562 128.328125 -11.65625 C 114.453125 -1.957031 98.972656 2.890625 81.890625 2.890625 C 60.441406 2.890625 42.171875 -5.132812 27.078125 -21.1875 C 11.984375 -37.25 4.4375 -56.648438 4.4375 -79.390625 C 4.4375 -102.515625 11.820312 -122.039062 26.59375 -137.96875 C 41.363281 -153.894531 59.796875 -161.859375 81.890625 -161.859375 C 107.710938 -161.859375 128.140625 -152.800781 143.171875 -134.6875 L 119.46875 -108.671875 C 110.988281 -122.285156 99.171875 -129.09375 84.015625 -129.09375 C 72.835938 -129.09375 63.296875 -124.242188 55.390625 -114.546875 C 47.492188 -104.847656 43.546875 -93.128906 43.546875 -79.390625 C 43.546875 -65.898438 47.492188 -54.367188 55.390625 -44.796875 C 63.296875 -35.222656 72.835938 -30.4375 84.015625 -30.4375 C 93.265625 -30.4375 101.320312 -33.226562 108.1875 -38.8125 C 115.0625 -44.40625 118.5 -51.828125 118.5 -61.078125 L 81.890625 -61.078125 L 81.890625 -89.015625 Z M 155.3125 -89.015625 "/></g></g></g><g fill="#264790" fill-opacity="1"><g transform="translate(146.45213, 174.32916)"><g><path d="M 111.5625 -44.703125 L 39.890625 -44.703125 C 39.890625 -37.765625 42.132812 -32.625 46.625 -29.28125 C 51.125 -25.945312 56.007812 -24.28125 61.28125 -24.28125 C 66.800781 -24.28125 71.164062 -25.015625 74.375 -26.484375 C 77.582031 -27.960938 81.242188 -30.890625 85.359375 -35.265625 L 110.03125 -22.9375 C 99.75 -5.71875 82.660156 2.890625 58.765625 2.890625 C 43.867188 2.890625 31.085938 -2.210938 20.421875 -12.421875 C 9.765625 -22.640625 4.4375 -34.941406 4.4375 -49.328125 C 4.4375 -63.710938 9.765625 -76.039062 20.421875 -86.3125 C 31.085938 -96.59375 43.867188 -101.734375 58.765625 -101.734375 C 74.441406 -101.734375 87.191406 -97.203125 97.015625 -88.140625 C 106.847656 -79.085938 111.765625 -66.148438 111.765625 -49.328125 C 111.765625 -47.015625 111.695312 -45.472656 111.5625 -44.703125 Z M 40.84375 -63.59375 L 78.421875 -63.59375 C 77.648438 -68.726562 75.625 -72.675781 72.34375 -75.4375 C 69.070312 -78.195312 64.867188 -79.578125 59.734375 -79.578125 C 54.078125 -79.578125 49.578125 -78.097656 46.234375 -75.140625 C 42.898438 -72.191406 41.101562 -68.34375 40.84375 -63.59375 Z M 40.84375 -63.59375 "/></g></g></g><g fill="#264790" fill-opacity="1"><g transform="translate(248.187318, 174.32916)"><g><path d="M 17.34375 -98.84375 L 17.34375 -135.65625 L 51.453125 -135.65625 L 51.453125 -98.84375 L 72.265625 -98.84375 L 72.265625 -72.828125 L 51.453125 -72.828125 L 51.453125 -41.421875 C 51.453125 -32.304688 54.019531 -27.75 59.15625 -27.75 C 60.4375 -27.75 61.785156 -28.003906 63.203125 -28.515625 C 64.617188 -29.023438 65.710938 -29.539062 66.484375 -30.0625 L 67.640625 -30.828125 L 76.109375 -3.28125 C 68.785156 0.832031 60.4375 2.890625 51.0625 2.890625 C 44.632812 2.890625 39.109375 1.765625 34.484375 -0.484375 C 29.859375 -2.734375 26.359375 -5.75 23.984375 -9.53125 C 21.609375 -13.320312 19.90625 -17.304688 18.875 -21.484375 C 17.851562 -25.660156 17.34375 -30.125 17.34375 -34.875 L 17.34375 -72.828125 L 3.078125 -72.828125 L 3.078125 -98.84375 Z M 17.34375 -98.84375 "/></g></g></g><g fill="#264790" fill-opacity="1"><g transform="translate(309.845029, 174.32916)"><g/></g></g><g fill="#264790" fill-opacity="1"><g transform="translate(347.99572, 174.32916)"><g><path d="M 102.515625 -158.96875 L 102.515625 -127.171875 L 47.78125 -127.171875 L 47.78125 -95.578125 L 100.203125 -95.578125 L 100.203125 -63.78125 L 47.78125 -63.78125 L 47.78125 -31.796875 L 102.515625 -31.796875 L 102.515625 0 L 11.5625 0 L 11.5625 -158.96875 Z M 102.515625 -158.96875 "/></g></g></g><g fill="#264790" fill-opacity="1"><g transform="translate(445.299282, 174.32916)"><g><path d="M 126.015625 0 L 84.78125 0 L 63.015625 -27.9375 L 41.234375 0 L 0 0 L 42.203125 -51.640625 L 5.96875 -98.84375 L 45.859375 -98.84375 L 63.015625 -75.921875 L 80.15625 -98.84375 L 120.046875 -98.84375 L 83.8125 -51.640625 Z M 126.015625 0 "/></g></g></g><g fill="#264790" fill-opacity="1"><g transform="translate(556.861195, 174.32916)"><g><path d="M 18.296875 -12.234375 C 9.054688 -22.316406 4.4375 -34.679688 4.4375 -49.328125 C 4.4375 -63.972656 9.054688 -76.367188 18.296875 -86.515625 C 27.546875 -96.660156 39.300781 -101.734375 53.5625 -101.734375 C 66.664062 -101.734375 77.457031 -97.625 85.9375 -89.40625 L 85.9375 -98.84375 L 120.046875 -98.84375 L 120.046875 0 L 86.328125 0 L 86.328125 -11.171875 L 85.9375 -11.171875 C 77.457031 -1.796875 66.664062 2.890625 53.5625 2.890625 C 39.300781 2.890625 27.546875 -2.148438 18.296875 -12.234375 Z M 47.296875 -66.09375 C 42.867188 -61.726562 40.65625 -56.140625 40.65625 -49.328125 C 40.65625 -42.515625 42.773438 -36.957031 47.015625 -32.65625 C 51.253906 -28.351562 56.84375 -26.203125 63.78125 -26.203125 C 70.457031 -26.203125 75.945312 -28.382812 80.25 -32.75 C 84.550781 -37.125 86.703125 -42.648438 86.703125 -49.328125 C 86.703125 -56.140625 84.484375 -61.726562 80.046875 -66.09375 C 75.617188 -70.457031 70.195312 -72.640625 63.78125 -72.640625 C 57.226562 -72.640625 51.734375 -70.457031 47.296875 -66.09375 Z M 47.296875 -66.09375 "/></g></g></g><g fill="#264790" fill-opacity="1"><g transform="translate(674.010854, 174.32916)"><g><path d="M 11.5625 0 L 11.5625 -98.84375 L 45.671875 -98.84375 L 45.671875 -88.4375 L 46.046875 -88.4375 C 54.910156 -97.300781 64.351562 -101.734375 74.375 -101.734375 C 81.570312 -101.734375 88.316406 -100.253906 94.609375 -97.296875 C 100.898438 -94.347656 105.65625 -89.789062 108.875 -83.625 C 118.882812 -95.695312 129.800781 -101.734375 141.625 -101.734375 C 152.15625 -101.734375 161.207031 -98.78125 168.78125 -92.875 C 176.363281 -86.96875 180.15625 -77.71875 180.15625 -65.125 L 180.15625 0 L 146.0625 0 L 146.0625 -55.875 C 146.0625 -61.144531 144.613281 -65.546875 141.71875 -69.078125 C 138.832031 -72.609375 134.5 -74.375 128.71875 -74.375 C 123.707031 -74.375 119.882812 -72.863281 117.25 -69.84375 C 114.613281 -66.832031 113.171875 -63.207031 112.921875 -58.96875 L 112.921875 0 L 78.8125 0 L 78.8125 -55.875 C 78.8125 -61.144531 77.363281 -65.546875 74.46875 -69.078125 C 71.582031 -72.609375 67.25 -74.375 61.46875 -74.375 C 56.195312 -74.375 52.242188 -72.734375 49.609375 -69.453125 C 46.984375 -66.179688 45.671875 -62.300781 45.671875 -57.8125 L 45.671875 0 Z M 11.5625 0 "/></g></g></g><g fill="#264790" fill-opacity="1"><g transform="translate(849.349945, 174.32916)"><g/></g></g><g fill="#264790" fill-opacity="1"><g transform="translate(887.500563, 174.32916)"><g><path d="M 47.78125 -158.96875 L 47.78125 0 L 11.5625 0 L 11.5625 -158.96875 Z M 47.78125 -158.96875 "/></g></g></g><g fill="#264790" fill-opacity="1"><g transform="translate(932.395108, 174.32916)"><g><path d="M 11.5625 0 L 11.5625 -98.84375 L 45.671875 -98.84375 L 45.671875 -88.4375 L 46.046875 -88.4375 C 54.910156 -97.300781 64.351562 -101.734375 74.375 -101.734375 C 79.257812 -101.734375 84.109375 -101.09375 88.921875 -99.8125 C 93.742188 -98.53125 98.367188 -96.539062 102.796875 -93.84375 C 107.234375 -91.144531 110.832031 -87.320312 113.59375 -82.375 C 116.351562 -77.425781 117.734375 -71.675781 117.734375 -65.125 L 117.734375 0 L 83.625 0 L 83.625 -55.875 C 83.625 -61.019531 81.984375 -65.515625 78.703125 -69.359375 C 75.429688 -73.210938 71.164062 -75.140625 65.90625 -75.140625 C 60.757812 -75.140625 56.097656 -73.148438 51.921875 -69.171875 C 47.753906 -65.191406 45.671875 -60.757812 45.671875 -55.875 L 45.671875 0 Z M 11.5625 0 "/></g></g></g><g fill="#264790" fill-opacity="1"><g transform="translate(1045.305778, 174.32916)"><g><path d="M 17.34375 -98.84375 L 17.34375 -119.859375 C 17.46875 -134.628906 20.929688 -146.445312 27.734375 -155.3125 C 34.546875 -164.175781 43.992188 -168.609375 56.078125 -168.609375 C 61.210938 -168.609375 66.125 -167.867188 70.8125 -166.390625 C 75.5 -164.910156 78.867188 -163.398438 80.921875 -161.859375 L 84.203125 -159.734375 L 72.265625 -135.65625 C 69.179688 -137.445312 65.773438 -138.34375 62.046875 -138.34375 C 57.804688 -138.34375 54.976562 -136.894531 53.5625 -134 C 52.15625 -131.113281 51.453125 -126.078125 51.453125 -118.890625 L 51.453125 -98.84375 L 74.1875 -98.84375 L 74.1875 -72.828125 L 51.453125 -72.828125 L 51.453125 0 L 17.34375 0 L 17.34375 -72.828125 L 3.078125 -72.828125 L 3.078125 -98.84375 Z M 17.34375 -98.84375 "/></g></g></g><g fill="#264790" fill-opacity="1"><g transform="translate(1103.109868, 174.32916)"><g><path d="M 20.90625 -11.75 C 9.925781 -21.507812 4.4375 -34.035156 4.4375 -49.328125 C 4.4375 -64.617188 10.148438 -77.175781 21.578125 -87 C 33.015625 -96.820312 47.144531 -101.734375 63.96875 -101.734375 C 80.539062 -101.734375 94.507812 -96.785156 105.875 -86.890625 C 117.25 -77.003906 122.9375 -64.484375 122.9375 -49.328125 C 122.9375 -34.171875 117.378906 -21.675781 106.265625 -11.84375 C 95.148438 -2.019531 81.050781 2.890625 63.96875 2.890625 C 46.238281 2.890625 31.882812 -1.988281 20.90625 -11.75 Z M 47.296875 -66.09375 C 42.867188 -61.726562 40.65625 -56.140625 40.65625 -49.328125 C 40.65625 -42.515625 42.773438 -36.957031 47.015625 -32.65625 C 51.253906 -28.351562 56.84375 -26.203125 63.78125 -26.203125 C 70.457031 -26.203125 75.945312 -28.382812 80.25 -32.75 C 84.550781 -37.125 86.703125 -42.648438 86.703125 -49.328125 C 86.703125 -56.140625 84.484375 -61.726562 80.046875 -66.09375 C 75.617188 -70.457031 70.195312 -72.640625 63.78125 -72.640625 C 57.226562 -72.640625 51.734375 -70.457031 47.296875 -66.09375 Z M 47.296875 -66.09375 "/></g></g></g></g></g><g transform="matrix(1, 0, 0, 1, 397, 530)"><g clip-path="url(#cb0e0e3801)"><g fill="#264790" fill-opacity="1"><g transform="translate(1.392027, 37.530804)"><g><path d="M 13.265625 0 L 8.484375 0 L 8.484375 -9.5 L 0.109375 -24.203125 L 5.25 -24.203125 L 10.78125 -14.6875 L 11.1875 -14.6875 L 16.609375 -24.203125 L 21.625 -24.203125 L 13.265625 -9.5 Z M 13.265625 0 "/></g></g></g><g fill="#264790" fill-opacity="1"><g transform="translate(36.840657, 37.530804)"><g><path d="M 13.1875 0.34375 C 10.976562 0.34375 9.023438 -0.109375 7.328125 -1.015625 C 5.628906 -1.921875 4.300781 -3.300781 3.34375 -5.15625 C 2.382812 -7.019531 1.90625 -9.335938 1.90625 -12.109375 C 1.90625 -14.867188 2.382812 -17.179688 3.34375 -19.046875 C 4.300781 -20.910156 5.628906 -22.289062 7.328125 -23.1875 C 9.023438 -24.09375 10.976562 -24.546875 13.1875 -24.546875 C 15.40625 -24.546875 17.359375 -24.097656 19.046875 -23.203125 C 20.742188 -22.304688 22.066406 -20.921875 23.015625 -19.046875 C 23.972656 -17.179688 24.453125 -14.867188 24.453125 -12.109375 C 24.453125 -9.335938 23.972656 -7.015625 23.015625 -5.140625 C 22.066406 -3.273438 20.742188 -1.894531 19.046875 -1 C 17.359375 -0.101562 15.40625 0.34375 13.1875 0.34375 Z M 13.1875 -3.8125 C 15.25 -3.8125 16.816406 -4.46875 17.890625 -5.78125 C 18.972656 -7.101562 19.515625 -9.210938 19.515625 -12.109375 C 19.515625 -14.992188 18.972656 -17.097656 17.890625 -18.421875 C 16.816406 -19.742188 15.25 -20.40625 13.1875 -20.40625 C 11.125 -20.40625 9.550781 -19.742188 8.46875 -18.421875 C 7.382812 -17.097656 6.84375 -14.992188 6.84375 -12.109375 C 6.84375 -9.210938 7.382812 -7.101562 8.46875 -5.78125 C 9.550781 -4.46875 11.125 -3.8125 13.1875 -3.8125 Z M 13.1875 -3.8125 "/></g></g></g><g fill="#264790" fill-opacity="1"><g transform="translate(76.920236, 37.530804)"><g><path d="M 12.828125 0.34375 C 9.492188 0.34375 7.019531 -0.445312 5.40625 -2.03125 C 3.800781 -3.613281 3 -5.960938 3 -9.078125 L 3 -24.203125 L 7.6875 -24.203125 L 7.6875 -9.109375 C 7.6875 -7.335938 8.109375 -6.007812 8.953125 -5.125 C 9.804688 -4.25 11.097656 -3.8125 12.828125 -3.8125 C 16.265625 -3.8125 17.984375 -5.578125 17.984375 -9.109375 L 17.984375 -24.203125 L 22.671875 -24.203125 L 22.671875 -9.078125 C 22.671875 -5.960938 21.863281 -3.613281 20.25 -2.03125 C 18.632812 -0.445312 16.160156 0.34375 12.828125 0.34375 Z M 12.828125 0.34375 "/></g></g></g><g fill="#264790" fill-opacity="1"><g transform="translate(116.288618, 37.530804)"><g><path d="M 3.140625 0 L 3.140625 -24.203125 L 12.859375 -24.203125 C 15.367188 -24.203125 17.257812 -23.625 18.53125 -22.46875 C 19.8125 -21.320312 20.453125 -19.734375 20.453125 -17.703125 C 20.453125 -16.234375 20.078125 -15.03125 19.328125 -14.09375 C 18.585938 -13.15625 17.476562 -12.4375 16 -11.9375 L 16 -11.59375 C 16.757812 -11.257812 17.375 -10.765625 17.84375 -10.109375 C 18.3125 -9.460938 18.753906 -8.5 19.171875 -7.21875 L 21.59375 0 L 16.671875 0 L 14.296875 -7.234375 C 14.054688 -7.960938 13.785156 -8.523438 13.484375 -8.921875 C 13.179688 -9.328125 12.796875 -9.617188 12.328125 -9.796875 C 11.859375 -9.984375 11.25 -10.078125 10.5 -10.078125 L 7.9375 -10.078125 L 7.9375 0 Z M 12.28125 -13.875 C 14.601562 -13.875 15.765625 -14.957031 15.765625 -17.125 C 15.765625 -19.3125 14.601562 -20.40625 12.28125 -20.40625 L 7.9375 -20.40625 L 7.9375 -13.875 Z M 12.28125 -13.875 "/></g></g></g><g fill="#264790" fill-opacity="1"><g transform="translate(152.63036, 37.530804)"><g/></g></g><g fill="#264790" fill-opacity="1"><g transform="translate(174.351536, 37.530804)"><g><path d="M 23.234375 0 L 18.1875 0 L 16.375 -5.578125 L 7.109375 -5.578125 L 5.28125 0 L 0.359375 0 L 8.71875 -24.203125 L 14.859375 -24.203125 Z M 11.5 -19.15625 L 8.390625 -9.609375 L 15.046875 -9.609375 L 11.921875 -19.15625 Z M 11.5 -19.15625 "/></g></g></g><g fill="#264790" fill-opacity="1"><g transform="translate(211.652545, 37.530804)"><g><path d="M 13.234375 0.34375 C 11.003906 0.34375 9.035156 -0.117188 7.328125 -1.046875 C 5.628906 -1.972656 4.300781 -3.363281 3.34375 -5.21875 C 2.382812 -7.082031 1.90625 -9.378906 1.90625 -12.109375 C 1.90625 -14.828125 2.382812 -17.113281 3.34375 -18.96875 C 4.300781 -20.832031 5.628906 -22.226562 7.328125 -23.15625 C 9.035156 -24.082031 11.003906 -24.546875 13.234375 -24.546875 C 15.554688 -24.546875 17.53125 -24.09375 19.15625 -23.1875 C 20.789062 -22.28125 21.953125 -20.890625 22.640625 -19.015625 L 19.15625 -16.890625 L 18.734375 -16.90625 C 18.222656 -18.164062 17.519531 -19.066406 16.625 -19.609375 C 15.738281 -20.160156 14.609375 -20.4375 13.234375 -20.4375 C 11.222656 -20.4375 9.65625 -19.769531 8.53125 -18.4375 C 7.40625 -17.101562 6.84375 -14.992188 6.84375 -12.109375 C 6.84375 -9.222656 7.40625 -7.113281 8.53125 -5.78125 C 9.65625 -4.457031 11.222656 -3.796875 13.234375 -3.796875 C 16.378906 -3.796875 18.300781 -5.320312 19 -8.375 L 19.421875 -8.375 L 22.953125 -6.546875 C 22.285156 -4.242188 21.148438 -2.519531 19.546875 -1.375 C 17.953125 -0.226562 15.847656 0.34375 13.234375 0.34375 Z M 13.234375 0.34375 "/></g></g></g><g fill="#264790" fill-opacity="1"><g transform="translate(249.10239, 37.530804)"><g><path d="M 23.234375 0 L 18.1875 0 L 16.375 -5.578125 L 7.109375 -5.578125 L 5.28125 0 L 0.359375 0 L 8.71875 -24.203125 L 14.859375 -24.203125 Z M 11.5 -19.15625 L 8.390625 -9.609375 L 15.046875 -9.609375 L 11.921875 -19.15625 Z M 11.5 -19.15625 "/></g></g></g><g fill="#264790" fill-opacity="1"><g transform="translate(286.403399, 37.530804)"><g><path d="M 11.859375 -24.203125 C 15.785156 -24.203125 18.78125 -23.1875 20.84375 -21.15625 C 22.914062 -19.125 23.953125 -16.109375 23.953125 -12.109375 C 23.953125 -8.109375 22.914062 -5.085938 20.84375 -3.046875 C 18.78125 -1.015625 15.785156 0 11.859375 0 L 3.140625 0 L 3.140625 -24.203125 Z M 11.578125 -4.015625 C 14.066406 -4.015625 15.925781 -4.648438 17.15625 -5.921875 C 18.394531 -7.203125 19.015625 -9.265625 19.015625 -12.109375 C 19.015625 -14.941406 18.394531 -16.992188 17.15625 -18.265625 C 15.925781 -19.546875 14.066406 -20.1875 11.578125 -20.1875 L 7.9375 -20.1875 L 7.9375 -4.015625 Z M 11.578125 -4.015625 "/></g></g></g><g fill="#264790" fill-opacity="1"><g transform="translate(325.986803, 37.530804)"><g><path d="M 7.9375 -10.625 L 7.9375 -4 L 19.484375 -4 L 19.484375 0 L 3.140625 0 L 3.140625 -24.203125 L 19.21875 -24.203125 L 19.21875 -20.203125 L 7.9375 -20.203125 L 7.9375 -14.53125 L 17.796875 -14.53125 L 17.796875 -10.625 Z M 7.9375 -10.625 "/></g></g></g><g fill="#264790" fill-opacity="1"><g transform="translate(360.509244, 37.530804)"><g><path d="M 7.53125 0 L 3.140625 0 L 3.140625 -24.203125 L 9.40625 -24.203125 L 15.53125 -6.40625 L 15.875 -6.40625 L 21.96875 -24.203125 L 28.078125 -24.203125 L 28.078125 0 L 23.546875 0 L 23.546875 -16 L 23.125 -16.0625 L 17.53125 0 L 13.546875 0 L 7.953125 -16.0625 L 7.53125 -16 Z M 7.53125 0 "/></g></g></g><g fill="#264790" fill-opacity="1"><g transform="translate(405.451319, 37.530804)"><g><path d="M 7.9375 0 L 3.140625 0 L 3.140625 -24.203125 L 7.9375 -24.203125 Z M 7.9375 0 "/></g></g></g><g fill="#264790" fill-opacity="1"><g transform="translate(430.265291, 37.530804)"><g><path d="M 13.234375 0.34375 C 11.003906 0.34375 9.035156 -0.117188 7.328125 -1.046875 C 5.628906 -1.972656 4.300781 -3.363281 3.34375 -5.21875 C 2.382812 -7.082031 1.90625 -9.378906 1.90625 -12.109375 C 1.90625 -14.828125 2.382812 -17.113281 3.34375 -18.96875 C 4.300781 -20.832031 5.628906 -22.226562 7.328125 -23.15625 C 9.035156 -24.082031 11.003906 -24.546875 13.234375 -24.546875 C 15.554688 -24.546875 17.53125 -24.09375 19.15625 -23.1875 C 20.789062 -22.28125 21.953125 -20.890625 22.640625 -19.015625 L 19.15625 -16.890625 L 18.734375 -16.90625 C 18.222656 -18.164062 17.519531 -19.066406 16.625 -19.609375 C 15.738281 -20.160156 14.609375 -20.4375 13.234375 -20.4375 C 11.222656 -20.4375 9.65625 -19.769531 8.53125 -18.4375 C 7.40625 -17.101562 6.84375 -14.992188 6.84375 -12.109375 C 6.84375 -9.222656 7.40625 -7.113281 8.53125 -5.78125 C 9.65625 -4.457031 11.222656 -3.796875 13.234375 -3.796875 C 16.378906 -3.796875 18.300781 -5.320312 19 -8.375 L 19.421875 -8.375 L 22.953125 -6.546875 C 22.285156 -4.242188 21.148438 -2.519531 19.546875 -1.375 C 17.953125 -0.226562 15.847656 0.34375 13.234375 0.34375 Z M 13.234375 0.34375 "/></g></g></g><g fill="#264790" fill-opacity="1"><g transform="translate(467.715136, 37.530804)"><g/></g></g><g fill="#264790" fill-opacity="1"><g transform="translate(489.436312, 37.530804)"><g><path d="M 10.734375 0.34375 C 9.054688 0.34375 7.5625 0.140625 6.25 -0.265625 C 4.9375 -0.679688 3.84375 -1.222656 2.96875 -1.890625 C 2.101562 -2.566406 1.441406 -3.3125 0.984375 -4.125 L 3.609375 -7.328125 L 4.015625 -7.328125 C 4.742188 -6.253906 5.671875 -5.394531 6.796875 -4.75 C 7.921875 -4.113281 9.234375 -3.796875 10.734375 -3.796875 C 12.015625 -3.796875 12.976562 -4.0625 13.625 -4.59375 C 14.28125 -5.132812 14.609375 -5.882812 14.609375 -6.84375 C 14.609375 -7.414062 14.5 -7.894531 14.28125 -8.28125 C 14.070312 -8.664062 13.722656 -8.992188 13.234375 -9.265625 C 12.753906 -9.546875 12.101562 -9.785156 11.28125 -9.984375 L 8.15625 -10.6875 C 5.988281 -11.1875 4.367188 -12.015625 3.296875 -13.171875 C 2.234375 -14.328125 1.703125 -15.828125 1.703125 -17.671875 C 1.703125 -19.035156 2.046875 -20.234375 2.734375 -21.265625 C 3.421875 -22.304688 4.414062 -23.113281 5.71875 -23.6875 C 7.03125 -24.257812 8.59375 -24.546875 10.40625 -24.546875 C 12.28125 -24.546875 13.878906 -24.300781 15.203125 -23.8125 C 16.535156 -23.320312 17.660156 -22.570312 18.578125 -21.5625 L 16.203125 -18.3125 L 15.796875 -18.3125 C 15.109375 -19.03125 14.320312 -19.566406 13.4375 -19.921875 C 12.5625 -20.285156 11.550781 -20.46875 10.40625 -20.46875 C 9.09375 -20.46875 8.09375 -20.234375 7.40625 -19.765625 C 6.726562 -19.304688 6.390625 -18.664062 6.390625 -17.84375 C 6.390625 -17.082031 6.628906 -16.472656 7.109375 -16.015625 C 7.585938 -15.566406 8.421875 -15.21875 9.609375 -14.96875 L 12.78125 -14.296875 C 15.132812 -13.804688 16.835938 -12.96875 17.890625 -11.78125 C 18.953125 -10.59375 19.484375 -9.046875 19.484375 -7.140625 C 19.484375 -5.628906 19.15625 -4.3125 18.5 -3.1875 C 17.851562 -2.0625 16.875 -1.191406 15.5625 -0.578125 C 14.25 0.0351562 12.640625 0.34375 10.734375 0.34375 Z M 10.734375 0.34375 "/></g></g></g><g fill="#264790" fill-opacity="1"><g transform="translate(523.942197, 37.530804)"><g><path d="M 12.828125 0.34375 C 9.492188 0.34375 7.019531 -0.445312 5.40625 -2.03125 C 3.800781 -3.613281 3 -5.960938 3 -9.078125 L 3 -24.203125 L 7.6875 -24.203125 L 7.6875 -9.109375 C 7.6875 -7.335938 8.109375 -6.007812 8.953125 -5.125 C 9.804688 -4.25 11.097656 -3.8125 12.828125 -3.8125 C 16.265625 -3.8125 17.984375 -5.578125 17.984375 -9.109375 L 17.984375 -24.203125 L 22.671875 -24.203125 L 22.671875 -9.078125 C 22.671875 -5.960938 21.863281 -3.613281 20.25 -2.03125 C 18.632812 -0.445312 16.160156 0.34375 12.828125 0.34375 Z M 12.828125 0.34375 "/></g></g></g><g fill="#264790" fill-opacity="1"><g transform="translate(563.310578, 37.530804)"><g><path d="M 13.234375 0.34375 C 11.003906 0.34375 9.035156 -0.117188 7.328125 -1.046875 C 5.628906 -1.972656 4.300781 -3.363281 3.34375 -5.21875 C 2.382812 -7.082031 1.90625 -9.378906 1.90625 -12.109375 C 1.90625 -14.828125 2.382812 -17.113281 3.34375 -18.96875 C 4.300781 -20.832031 5.628906 -22.226562 7.328125 -23.15625 C 9.035156 -24.082031 11.003906 -24.546875 13.234375 -24.546875 C 15.554688 -24.546875 17.53125 -24.09375 19.15625 -23.1875 C 20.789062 -22.28125 21.953125 -20.890625 22.640625 -19.015625 L 19.15625 -16.890625 L 18.734375 -16.90625 C 18.222656 -18.164062 17.519531 -19.066406 16.625 -19.609375 C 15.738281 -20.160156 14.609375 -20.4375 13.234375 -20.4375 C 11.222656 -20.4375 9.65625 -19.769531 8.53125 -18.4375 C 7.40625 -17.101562 6.84375 -14.992188 6.84375 -12.109375 C 6.84375 -9.222656 7.40625 -7.113281 8.53125 -5.78125 C 9.65625 -4.457031 11.222656 -3.796875 13.234375 -3.796875 C 16.378906 -3.796875 18.300781 -5.320312 19 -8.375 L 19.421875 -8.375 L 22.953125 -6.546875 C 22.285156 -4.242188 21.148438 -2.519531 19.546875 -1.375 C 17.953125 -0.226562 15.847656 0.34375 13.234375 0.34375 Z M 13.234375 0.34375 "/></g></g></g><g fill="#264790" fill-opacity="1"><g transform="translate(600.760423, 37.530804)"><g><path d="M 13.234375 0.34375 C 11.003906 0.34375 9.035156 -0.117188 7.328125 -1.046875 C 5.628906 -1.972656 4.300781 -3.363281 3.34375 -5.21875 C 2.382812 -7.082031 1.90625 -9.378906 1.90625 -12.109375 C 1.90625 -14.828125 2.382812 -17.113281 3.34375 -18.96875 C 4.300781 -20.832031 5.628906 -22.226562 7.328125 -23.15625 C 9.035156 -24.082031 11.003906 -24.546875 13.234375 -24.546875 C 15.554688 -24.546875 17.53125 -24.09375 19.15625 -23.1875 C 20.789062 -22.28125 21.953125 -20.890625 22.640625 -19.015625 L 19.15625 -16.890625 L 18.734375 -16.90625 C 18.222656 -18.164062 17.519531 -19.066406 16.625 -19.609375 C 15.738281 -20.160156 14.609375 -20.4375 13.234375 -20.4375 C 11.222656 -20.4375 9.65625 -19.769531 8.53125 -18.4375 C 7.40625 -17.101562 6.84375 -14.992188 6.84375 -12.109375 C 6.84375 -9.222656 7.40625 -7.113281 8.53125 -5.78125 C 9.65625 -4.457031 11.222656 -3.796875 13.234375 -3.796875 C 16.378906 -3.796875 18.300781 -5.320312 19 -8.375 L 19.421875 -8.375 L 22.953125 -6.546875 C 22.285156 -4.242188 21.148438 -2.519531 19.546875 -1.375 C 17.953125 -0.226562 15.847656 0.34375 13.234375 0.34375 Z M 13.234375 0.34375 "/></g></g></g><g fill="#264790" fill-opacity="1"><g transform="translate(638.210269, 37.530804)"><g><path d="M 7.9375 -10.625 L 7.9375 -4 L 19.484375 -4 L 19.484375 0 L 3.140625 0 L 3.140625 -24.203125 L 19.21875 -24.203125 L 19.21875 -20.203125 L 7.9375 -20.203125 L 7.9375 -14.53125 L 17.796875 -14.53125 L 17.796875 -10.625 Z M 7.9375 -10.625 "/></g></g></g><g fill="#264790" fill-opacity="1"><g transform="translate(672.732742, 37.530804)"><g><path d="M 10.734375 0.34375 C 9.054688 0.34375 7.5625 0.140625 6.25 -0.265625 C 4.9375 -0.679688 3.84375 -1.222656 2.96875 -1.890625 C 2.101562 -2.566406 1.441406 -3.3125 0.984375 -4.125 L 3.609375 -7.328125 L 4.015625 -7.328125 C 4.742188 -6.253906 5.671875 -5.394531 6.796875 -4.75 C 7.921875 -4.113281 9.234375 -3.796875 10.734375 -3.796875 C 12.015625 -3.796875 12.976562 -4.0625 13.625 -4.59375 C 14.28125 -5.132812 14.609375 -5.882812 14.609375 -6.84375 C 14.609375 -7.414062 14.5 -7.894531 14.28125 -8.28125 C 14.070312 -8.664062 13.722656 -8.992188 13.234375 -9.265625 C 12.753906 -9.546875 12.101562 -9.785156 11.28125 -9.984375 L 8.15625 -10.6875 C 5.988281 -11.1875 4.367188 -12.015625 3.296875 -13.171875 C 2.234375 -14.328125 1.703125 -15.828125 1.703125 -17.671875 C 1.703125 -19.035156 2.046875 -20.234375 2.734375 -21.265625 C 3.421875 -22.304688 4.414062 -23.113281 5.71875 -23.6875 C 7.03125 -24.257812 8.59375 -24.546875 10.40625 -24.546875 C 12.28125 -24.546875 13.878906 -24.300781 15.203125 -23.8125 C 16.535156 -23.320312 17.660156 -22.570312 18.578125 -21.5625 L 16.203125 -18.3125 L 15.796875 -18.3125 C 15.109375 -19.03125 14.320312 -19.566406 13.4375 -19.921875 C 12.5625 -20.285156 11.550781 -20.46875 10.40625 -20.46875 C 9.09375 -20.46875 8.09375 -20.234375 7.40625 -19.765625 C 6.726562 -19.304688 6.390625 -18.664062 6.390625 -17.84375 C 6.390625 -17.082031 6.628906 -16.472656 7.109375 -16.015625 C 7.585938 -15.566406 8.421875 -15.21875 9.609375 -14.96875 L 12.78125 -14.296875 C 15.132812 -13.804688 16.835938 -12.96875 17.890625 -11.78125 C 18.953125 -10.59375 19.484375 -9.046875 19.484375 -7.140625 C 19.484375 -5.628906 19.15625 -4.3125 18.5 -3.1875 C 17.851562 -2.0625 16.875 -1.191406 15.5625 -0.578125 C 14.25 0.0351562 12.640625 0.34375 10.734375 0.34375 Z M 10.734375 0.34375 "/></g></g></g><g fill="#264790" fill-opacity="1"><g transform="translate(707.238594, 37.530804)"><g><path d="M 10.734375 0.34375 C 9.054688 0.34375 7.5625 0.140625 6.25 -0.265625 C 4.9375 -0.679688 3.84375 -1.222656 2.96875 -1.890625 C 2.101562 -2.566406 1.441406 -3.3125 0.984375 -4.125 L 3.609375 -7.328125 L 4.015625 -7.328125 C 4.742188 -6.253906 5.671875 -5.394531 6.796875 -4.75 C 7.921875 -4.113281 9.234375 -3.796875 10.734375 -3.796875 C 12.015625 -3.796875 12.976562 -4.0625 13.625 -4.59375 C 14.28125 -5.132812 14.609375 -5.882812 14.609375 -6.84375 C 14.609375 -7.414062 14.5 -7.894531 14.28125 -8.28125 C 14.070312 -8.664062 13.722656 -8.992188 13.234375 -9.265625 C 12.753906 -9.546875 12.101562 -9.785156 11.28125 -9.984375 L 8.15625 -10.6875 C 5.988281 -11.1875 4.367188 -12.015625 3.296875 -13.171875 C 2.234375 -14.328125 1.703125 -15.828125 1.703125 -17.671875 C 1.703125 -19.035156 2.046875 -20.234375 2.734375 -21.265625 C 3.421875 -22.304688 4.414062 -23.113281 5.71875 -23.6875 C 7.03125 -24.257812 8.59375 -24.546875 10.40625 -24.546875 C 12.28125 -24.546875 13.878906 -24.300781 15.203125 -23.8125 C 16.535156 -23.320312 17.660156 -22.570312 18.578125 -21.5625 L 16.203125 -18.3125 L 15.796875 -18.3125 C 15.109375 -19.03125 14.320312 -19.566406 13.4375 -19.921875 C 12.5625 -20.285156 11.550781 -20.46875 10.40625 -20.46875 C 9.09375 -20.46875 8.09375 -20.234375 7.40625 -19.765625 C 6.726562 -19.304688 6.390625 -18.664062 6.390625 -17.84375 C 6.390625 -17.082031 6.628906 -16.472656 7.109375 -16.015625 C 7.585938 -15.566406 8.421875 -15.21875 9.609375 -14.96875 L 12.78125 -14.296875 C 15.132812 -13.804688 16.835938 -12.96875 17.890625 -11.78125 C 18.953125 -10.59375 19.484375 -9.046875 19.484375 -7.140625 C 19.484375 -5.628906 19.15625 -4.3125 18.5 -3.1875 C 17.851562 -2.0625 16.875 -1.191406 15.5625 -0.578125 C 14.25 0.0351562 12.640625 0.34375 10.734375 0.34375 Z M 10.734375 0.34375 "/></g></g></g><g fill="#264790" fill-opacity="1"><g transform="translate(741.744446, 37.530804)"><g/></g></g><g fill="#264790" fill-opacity="1"><g transform="translate(763.465688, 37.530804)"><g><path d="M 12.5 -24.203125 C 14.226562 -24.203125 15.707031 -23.882812 16.9375 -23.25 C 18.175781 -22.613281 19.109375 -21.722656 19.734375 -20.578125 C 20.359375 -19.441406 20.671875 -18.117188 20.671875 -16.609375 C 20.671875 -15.097656 20.359375 -13.769531 19.734375 -12.625 C 19.109375 -11.488281 18.175781 -10.601562 16.9375 -9.96875 C 15.707031 -9.332031 14.226562 -9.015625 12.5 -9.015625 L 7.9375 -9.015625 L 7.9375 0 L 3.140625 0 L 3.140625 -24.203125 Z M 11.875 -12.8125 C 14.53125 -12.8125 15.859375 -14.078125 15.859375 -16.609375 C 15.859375 -19.140625 14.53125 -20.40625 11.875 -20.40625 L 7.9375 -20.40625 L 7.9375 -12.8125 Z M 11.875 -12.8125 "/></g></g></g><g fill="#264790" fill-opacity="1"><g transform="translate(799.294668, 37.530804)"><g><path d="M 23.234375 0 L 18.1875 0 L 16.375 -5.578125 L 7.109375 -5.578125 L 5.28125 0 L 0.359375 0 L 8.71875 -24.203125 L 14.859375 -24.203125 Z M 11.5 -19.15625 L 8.390625 -9.609375 L 15.046875 -9.609375 L 11.921875 -19.15625 Z M 11.5 -19.15625 "/></g></g></g><g fill="#264790" fill-opacity="1"><g transform="translate(836.595712, 37.530804)"><g><path d="M 3.140625 0 L 3.140625 -24.203125 L 12.859375 -24.203125 C 15.367188 -24.203125 17.257812 -23.625 18.53125 -22.46875 C 19.8125 -21.320312 20.453125 -19.734375 20.453125 -17.703125 C 20.453125 -16.234375 20.078125 -15.03125 19.328125 -14.09375 C 18.585938 -13.15625 17.476562 -12.4375 16 -11.9375 L 16 -11.59375 C 16.757812 -11.257812 17.375 -10.765625 17.84375 -10.109375 C 18.3125 -9.460938 18.753906 -8.5 19.171875 -7.21875 L 21.59375 0 L 16.671875 0 L 14.296875 -7.234375 C 14.054688 -7.960938 13.785156 -8.523438 13.484375 -8.921875 C 13.179688 -9.328125 12.796875 -9.617188 12.328125 -9.796875 C 11.859375 -9.984375 11.25 -10.078125 10.5 -10.078125 L 7.9375 -10.078125 L 7.9375 0 Z M 12.28125 -13.875 C 14.601562 -13.875 15.765625 -14.957031 15.765625 -17.125 C 15.765625 -19.3125 14.601562 -20.40625 12.28125 -20.40625 L 7.9375 -20.40625 L 7.9375 -13.875 Z M 12.28125 -13.875 "/></g></g></g><g fill="#264790" fill-opacity="1"><g transform="translate(872.937454, 37.530804)"><g><path d="M 19.40625 -24.203125 L 19.40625 -20.1875 L 12.421875 -20.1875 L 12.421875 0 L 7.65625 0 L 7.65625 -20.1875 L 0.65625 -20.1875 L 0.65625 -24.203125 Z M 19.40625 -24.203125 "/></g></g></g><g fill="#264790" fill-opacity="1"><g transform="translate(906.715585, 37.530804)"><g><path d="M 7.78125 0 L 3.140625 0 L 3.140625 -24.203125 L 8.625 -24.203125 L 18.34375 -8.609375 L 18.78125 -8.671875 L 18.78125 -24.203125 L 23.375 -24.203125 L 23.375 0 L 18.46875 0 L 8.1875 -16.65625 L 7.78125 -16.59375 Z M 7.78125 0 "/></g></g></g><g fill="#264790" fill-opacity="1"><g transform="translate(946.960554, 37.530804)"><g><path d="M 7.9375 -10.625 L 7.9375 -4 L 19.484375 -4 L 19.484375 0 L 3.140625 0 L 3.140625 -24.203125 L 19.21875 -24.203125 L 19.21875 -20.203125 L 7.9375 -20.203125 L 7.9375 -14.53125 L 17.796875 -14.53125 L 17.796875 -10.625 Z M 7.9375 -10.625 "/></g></g></g><g fill="#264790" fill-opacity="1"><g transform="translate(981.483027, 37.530804)"><g><path d="M 3.140625 0 L 3.140625 -24.203125 L 12.859375 -24.203125 C 15.367188 -24.203125 17.257812 -23.625 18.53125 -22.46875 C 19.8125 -21.320312 20.453125 -19.734375 20.453125 -17.703125 C 20.453125 -16.234375 20.078125 -15.03125 19.328125 -14.09375 C 18.585938 -13.15625 17.476562 -12.4375 16 -11.9375 L 16 -11.59375 C 16.757812 -11.257812 17.375 -10.765625 17.84375 -10.109375 C 18.3125 -9.460938 18.753906 -8.5 19.171875 -7.21875 L 21.59375 0 L 16.671875 0 L 14.296875 -7.234375 C 14.054688 -7.960938 13.785156 -8.523438 13.484375 -8.921875 C 13.179688 -9.328125 12.796875 -9.617188 12.328125 -9.796875 C 11.859375 -9.984375 11.25 -10.078125 10.5 -10.078125 L 7.9375 -10.078125 L 7.9375 0 Z M 12.28125 -13.875 C 14.601562 -13.875 15.765625 -14.957031 15.765625 -17.125 C 15.765625 -19.3125 14.601562 -20.40625 12.28125 -20.40625 L 7.9375 -20.40625 L 7.9375 -13.875 Z M 12.28125 -13.875 "/></g></g></g></g></g></svg>